# xmcd
#
# Track frame offsets:
# 182
# 14817
# 30820
# 48277
# 63790
# 74955
# 94950
# 109400
# 125545
# 139952
# 151865
#
# Disc length: 2306 seconds
#
#
# Revision: 4
# Processed by: cddbd v1.5.1PL0 Copyright (c) Steve Scherf et al.
# Submitted via: FreeRIP 2.92 
#
DISCID=9c09000b
DTITLE=Clay Walker - Say No More
DYEAR=2001
DGENRE=Country
TTITLE0=Say No More
TTITLE1=Real
TTITLE2=If You Ever Feel Like Lovin' Me Again
TTITLE3=Could I Ask You Not To Dance
TTITLE4=La Bamba
TTITLE5=You Deliver Me
TTITLE6=I Love It
TTITLE7=She's Easy To Hold
TTITLE8=Rough Around The Edges
TTITLE9=Texas Swing
TTITLE10=So Much More
EXTD=
EXTT0=
EXTT1=
EXTT2=
EXTT3=
EXTT4=
EXTT5=
EXTT6=
EXTT7=
EXTT8=
EXTT9=
EXTT10=
PLAYORDER=
